<mxfile host="Electron" agent="Mozilla/5.0 (Windows NT 10.0; Win64; x64) AppleWebKit/537.36 (KHTML, like Gecko) draw.io/24.7.17 Chrome/128.0.6613.36 Electron/32.0.1 Safari/537.36" version="24.7.17">
  <diagram id="R2lEEEUBdFMjLlhIrx00" name="Page-1">
    <mxGraphModel dx="1142" dy="676" grid="1" gridSize="10" guides="1" tooltips="1" connect="1" arrows="1" fold="1" page="1" pageScale="1" pageWidth="850" pageHeight="1100" math="0" shadow="0" extFonts="Permanent Marker^https://fonts.googleapis.com/css?family=Permanent+Marker">
      <root>
        <mxCell id="0" />
        <mxCell id="1" parent="0" />
        <mxCell id="Lu04RH-zzImk3okpoFFc-33" style="edgeStyle=none;curved=1;rounded=0;orthogonalLoop=1;jettySize=auto;html=1;fontSize=12;startSize=8;endSize=8;" parent="1" source="Lu04RH-zzImk3okpoFFc-30" target="Lu04RH-zzImk3okpoFFc-29" edge="1">
          <mxGeometry relative="1" as="geometry" />
        </mxCell>
        <mxCell id="Lu04RH-zzImk3okpoFFc-18" value="Uporabnik" style="swimlane;childLayout=stackLayout;horizontal=1;startSize=50;horizontalStack=0;rounded=1;fontSize=14;fontStyle=0;strokeWidth=2;resizeParent=0;resizeLast=1;shadow=0;dashed=0;align=center;arcSize=4;whiteSpace=wrap;html=1;" parent="1" vertex="1">
          <mxGeometry x="390" y="40" width="160" height="175" as="geometry" />
        </mxCell>
        <mxCell id="Lu04RH-zzImk3okpoFFc-19" value="ID_uporabnika (int)&lt;div&gt;Username (varchar)&lt;/div&gt;&lt;div&gt;&lt;span style=&quot;background-color: initial;&quot;&gt;Geslo&amp;nbsp;&lt;/span&gt;&lt;span style=&quot;background-color: initial;&quot;&gt;(varchar)&lt;/span&gt;&lt;/div&gt;&lt;div&gt;Email&amp;nbsp;&lt;span style=&quot;background-color: initial;&quot;&gt;(varchar)&lt;/span&gt;&lt;/div&gt;&lt;div&gt;&lt;span style=&quot;background-color: initial;&quot;&gt;JeAdmin (boolean)&lt;/span&gt;&lt;/div&gt;&lt;div&gt;TK_TipUporabnika (int)&lt;/div&gt;" style="align=left;strokeColor=none;fillColor=none;spacingLeft=4;fontSize=12;verticalAlign=top;resizable=0;rotatable=0;part=1;html=1;" parent="Lu04RH-zzImk3okpoFFc-18" vertex="1">
          <mxGeometry y="50" width="160" height="125" as="geometry" />
        </mxCell>
        <mxCell id="Lu04RH-zzImk3okpoFFc-20" value="Sportna_Aktivnost" style="swimlane;childLayout=stackLayout;horizontal=1;startSize=50;horizontalStack=0;rounded=1;fontSize=14;fontStyle=0;strokeWidth=2;resizeParent=0;resizeLast=1;shadow=0;dashed=0;align=center;arcSize=0;whiteSpace=wrap;html=1;" parent="1" vertex="1">
          <mxGeometry x="425" y="310" width="175" height="190" as="geometry" />
        </mxCell>
        <mxCell id="Lu04RH-zzImk3okpoFFc-21" value="ID_Aktivnosti (int)&lt;div&gt;Naziv (kosarka v cet)&amp;nbsp;&lt;span style=&quot;background-color: initial;&quot;&gt;(varchar)&lt;/span&gt;&lt;/div&gt;&lt;div&gt;Opis&amp;nbsp;&lt;span style=&quot;background-color: initial;&quot;&gt;(varchar)&lt;/span&gt;&lt;/div&gt;&lt;div&gt;Lokacija&amp;nbsp;&lt;span style=&quot;background-color: initial;&quot;&gt;(varchar)&lt;/span&gt;&lt;/div&gt;&lt;div&gt;Cena (varchar)&lt;/div&gt;&lt;div&gt;ProstaMesta (int)&lt;/div&gt;&lt;div&gt;TK_TipAktivnosti (int)&lt;/div&gt;&lt;div&gt;TK_Trener (int)&lt;/div&gt;&lt;div&gt;slika (varchar)&lt;/div&gt;" style="align=left;strokeColor=none;fillColor=none;spacingLeft=4;fontSize=12;verticalAlign=top;resizable=0;rotatable=0;part=1;html=1;" parent="Lu04RH-zzImk3okpoFFc-20" vertex="1">
          <mxGeometry y="50" width="175" height="140" as="geometry" />
        </mxCell>
        <mxCell id="Lu04RH-zzImk3okpoFFc-27" value="Sport" style="swimlane;childLayout=stackLayout;horizontal=1;startSize=50;horizontalStack=0;rounded=1;fontSize=14;fontStyle=0;strokeWidth=2;resizeParent=0;resizeLast=1;shadow=0;dashed=0;align=center;arcSize=4;whiteSpace=wrap;html=1;" parent="1" vertex="1">
          <mxGeometry x="170" y="330" width="160" height="120" as="geometry" />
        </mxCell>
        <mxCell id="Lu04RH-zzImk3okpoFFc-28" value="ID_TipAktvinosti (int)&lt;div&gt;Sport (varchar)&lt;/div&gt;" style="align=left;strokeColor=none;fillColor=none;spacingLeft=4;fontSize=12;verticalAlign=top;resizable=0;rotatable=0;part=1;html=1;" parent="Lu04RH-zzImk3okpoFFc-27" vertex="1">
          <mxGeometry y="50" width="160" height="70" as="geometry" />
        </mxCell>
        <mxCell id="Lu04RH-zzImk3okpoFFc-29" value="Trener" style="swimlane;childLayout=stackLayout;horizontal=1;startSize=50;horizontalStack=0;rounded=1;fontSize=14;fontStyle=0;strokeWidth=2;resizeParent=0;resizeLast=1;shadow=0;dashed=0;align=center;arcSize=4;whiteSpace=wrap;html=1;" parent="1" vertex="1">
          <mxGeometry x="720" y="240" width="160" height="190" as="geometry" />
        </mxCell>
        <mxCell id="Lu04RH-zzImk3okpoFFc-30" value="ID_Trener (int)&lt;div&gt;TK_Uporabnik (int)&lt;br&gt;&lt;div&gt;Ime&amp;nbsp;&lt;span style=&quot;background-color: initial;&quot;&gt;(varchar)&lt;/span&gt;&lt;/div&gt;&lt;div&gt;Priimek&amp;nbsp;&lt;span style=&quot;background-color: initial;&quot;&gt;(varchar)&lt;/span&gt;&lt;/div&gt;&lt;div&gt;Telefon (int)&lt;/div&gt;&lt;div&gt;email (varchar)&lt;/div&gt;&lt;div&gt;Urnik&amp;nbsp;&lt;span style=&quot;background-color: initial;&quot;&gt;(varchar)&lt;/span&gt;&lt;/div&gt;&lt;div&gt;OpisProfila&amp;nbsp;&lt;span style=&quot;background-color: initial;&quot;&gt;(varchar)&lt;/span&gt;&lt;/div&gt;&lt;div&gt;&lt;span style=&quot;background-color: initial;&quot;&gt;Slika (Varchar)&lt;/span&gt;&lt;/div&gt;&lt;div&gt;&lt;br&gt;&lt;/div&gt;&lt;div&gt;&lt;br&gt;&lt;/div&gt;&lt;/div&gt;" style="align=left;strokeColor=none;fillColor=none;spacingLeft=4;fontSize=12;verticalAlign=top;resizable=0;rotatable=0;part=1;html=1;" parent="Lu04RH-zzImk3okpoFFc-29" vertex="1">
          <mxGeometry y="50" width="160" height="140" as="geometry" />
        </mxCell>
        <mxCell id="Lu04RH-zzImk3okpoFFc-31" value="Ocena_Trenerja" style="swimlane;childLayout=stackLayout;horizontal=1;startSize=50;horizontalStack=0;rounded=1;fontSize=14;fontStyle=0;strokeWidth=2;resizeParent=0;resizeLast=1;shadow=0;dashed=0;align=center;arcSize=4;whiteSpace=wrap;html=1;" parent="1" vertex="1">
          <mxGeometry x="690" y="10" width="160" height="150" as="geometry" />
        </mxCell>
        <mxCell id="Lu04RH-zzImk3okpoFFc-32" value="ID_Ocena (int)&lt;div&gt;- Komentar&amp;nbsp;&lt;span style=&quot;background-color: initial;&quot;&gt;(varchar)&amp;nbsp;&lt;/span&gt;&lt;/div&gt;&lt;div&gt;+ Ocena (int)&lt;/div&gt;&lt;div&gt;datum (date)&lt;/div&gt;&lt;div&gt;TK_Trener (int)&lt;/div&gt;&lt;div&gt;TK_Uporabnik (int)&lt;/div&gt;" style="align=left;strokeColor=none;fillColor=none;spacingLeft=4;fontSize=12;verticalAlign=top;resizable=0;rotatable=0;part=1;html=1;" parent="Lu04RH-zzImk3okpoFFc-31" vertex="1">
          <mxGeometry y="50" width="160" height="100" as="geometry" />
        </mxCell>
        <mxCell id="Lu04RH-zzImk3okpoFFc-37" value="" style="edgeStyle=entityRelationEdgeStyle;fontSize=12;html=1;endArrow=ERoneToMany;rounded=0;startSize=8;endSize=8;curved=1;exitX=1;exitY=0.5;exitDx=0;exitDy=0;entryX=0;entryY=0.75;entryDx=0;entryDy=0;" parent="1" target="Lu04RH-zzImk3okpoFFc-21" edge="1">
          <mxGeometry width="100" height="100" relative="1" as="geometry">
            <mxPoint x="330" y="390" as="sourcePoint" />
            <mxPoint x="433" y="431" as="targetPoint" />
            <Array as="points">
              <mxPoint x="350" y="410" />
            </Array>
          </mxGeometry>
        </mxCell>
        <mxCell id="Lu04RH-zzImk3okpoFFc-38" value="" style="edgeStyle=entityRelationEdgeStyle;fontSize=12;html=1;endArrow=ERoneToMany;rounded=0;startSize=8;endSize=8;curved=1;entryX=1;entryY=0.75;entryDx=0;entryDy=0;" parent="1" target="Lu04RH-zzImk3okpoFFc-32" edge="1">
          <mxGeometry width="100" height="100" relative="1" as="geometry">
            <mxPoint x="880" y="310" as="sourcePoint" />
            <mxPoint x="960" y="120" as="targetPoint" />
            <Array as="points">
              <mxPoint x="950" y="280" />
              <mxPoint x="930" y="200" />
              <mxPoint x="950" y="250" />
              <mxPoint x="950" y="250" />
              <mxPoint x="940" y="250" />
              <mxPoint x="930" y="220" />
              <mxPoint x="930" y="250" />
              <mxPoint x="880" y="120" />
              <mxPoint x="980" y="320" />
              <mxPoint x="940" y="160" />
              <mxPoint x="960" y="180" />
            </Array>
          </mxGeometry>
        </mxCell>
        <mxCell id="Lu04RH-zzImk3okpoFFc-40" value="" style="edgeStyle=entityRelationEdgeStyle;fontSize=12;html=1;endArrow=ERmany;rounded=0;startSize=8;endSize=8;curved=1;exitX=1.001;exitY=0.121;exitDx=0;exitDy=0;exitPerimeter=0;entryX=-0.008;entryY=0.9;entryDx=0;entryDy=0;entryPerimeter=0;" parent="1" source="Lu04RH-zzImk3okpoFFc-19" target="Lu04RH-zzImk3okpoFFc-32" edge="1">
          <mxGeometry width="100" height="100" relative="1" as="geometry">
            <mxPoint x="590" y="210" as="sourcePoint" />
            <mxPoint x="690" y="110" as="targetPoint" />
          </mxGeometry>
        </mxCell>
        <mxCell id="Lu04RH-zzImk3okpoFFc-41" value="" style="edgeStyle=entityRelationEdgeStyle;fontSize=12;html=1;endArrow=ERoneToMany;rounded=0;startSize=8;endSize=8;curved=1;entryX=1.007;entryY=0.891;entryDx=0;entryDy=0;entryPerimeter=0;exitX=0;exitY=0.5;exitDx=0;exitDy=0;" parent="1" source="Lu04RH-zzImk3okpoFFc-30" target="Lu04RH-zzImk3okpoFFc-21" edge="1">
          <mxGeometry width="100" height="100" relative="1" as="geometry">
            <mxPoint x="730" y="470" as="sourcePoint" />
            <mxPoint x="620" y="400" as="targetPoint" />
          </mxGeometry>
        </mxCell>
        <mxCell id="Lu04RH-zzImk3okpoFFc-42" value="" style="edgeStyle=entityRelationEdgeStyle;fontSize=12;html=1;endArrow=ERzeroToOne;endFill=1;rounded=0;startSize=8;endSize=8;curved=1;exitX=1;exitY=0.25;exitDx=0;exitDy=0;entryX=0;entryY=0.5;entryDx=0;entryDy=0;" parent="1" source="Lu04RH-zzImk3okpoFFc-19" target="Lu04RH-zzImk3okpoFFc-29" edge="1">
          <mxGeometry width="100" height="100" relative="1" as="geometry">
            <mxPoint x="580" y="310" as="sourcePoint" />
            <mxPoint x="680" y="210" as="targetPoint" />
            <Array as="points">
              <mxPoint x="620" y="230" />
            </Array>
          </mxGeometry>
        </mxCell>
        <mxCell id="P3O7LEDbC1XbL-qgzDXC-1" value="Ocena_Sporta (neobvezno)" style="swimlane;childLayout=stackLayout;horizontal=1;startSize=50;horizontalStack=0;rounded=1;fontSize=14;fontStyle=0;strokeWidth=2;resizeParent=0;resizeLast=1;shadow=0;dashed=0;align=center;arcSize=4;whiteSpace=wrap;html=1;" vertex="1" parent="1">
          <mxGeometry x="140" y="52.5" width="160" height="150" as="geometry" />
        </mxCell>
        <mxCell id="P3O7LEDbC1XbL-qgzDXC-2" value="ID_Ocena (int)&lt;div&gt;- Komentar&amp;nbsp;&lt;span style=&quot;background-color: initial;&quot;&gt;(varchar)&amp;nbsp;&lt;/span&gt;&lt;/div&gt;&lt;div&gt;+ Ocena (int)&lt;/div&gt;&lt;div&gt;datum (date)&lt;/div&gt;&lt;div&gt;TK_Sportna_Aktivnost (int)&lt;/div&gt;&lt;div&gt;TK_Uporabnik (int)&lt;/div&gt;" style="align=left;strokeColor=none;fillColor=none;spacingLeft=4;fontSize=12;verticalAlign=top;resizable=0;rotatable=0;part=1;html=1;" vertex="1" parent="P3O7LEDbC1XbL-qgzDXC-1">
          <mxGeometry y="50" width="160" height="100" as="geometry" />
        </mxCell>
        <mxCell id="P3O7LEDbC1XbL-qgzDXC-3" value="" style="edgeStyle=entityRelationEdgeStyle;fontSize=12;html=1;endArrow=ERoneToMany;rounded=0;startSize=8;endSize=8;curved=1;exitX=-0.019;exitY=0.559;exitDx=0;exitDy=0;exitPerimeter=0;entryX=1;entryY=0.25;entryDx=0;entryDy=0;" edge="1" parent="1" source="Lu04RH-zzImk3okpoFFc-19" target="P3O7LEDbC1XbL-qgzDXC-2">
          <mxGeometry width="100" height="100" relative="1" as="geometry">
            <mxPoint x="280" y="310" as="sourcePoint" />
            <mxPoint x="380" y="210" as="targetPoint" />
          </mxGeometry>
        </mxCell>
        <mxCell id="P3O7LEDbC1XbL-qgzDXC-4" value="" style="edgeStyle=entityRelationEdgeStyle;fontSize=12;html=1;endArrow=ERoneToMany;rounded=0;startSize=8;endSize=8;curved=1;exitX=0.003;exitY=0.146;exitDx=0;exitDy=0;exitPerimeter=0;entryX=1;entryY=0.75;entryDx=0;entryDy=0;" edge="1" parent="1" source="Lu04RH-zzImk3okpoFFc-21" target="P3O7LEDbC1XbL-qgzDXC-2">
          <mxGeometry width="100" height="100" relative="1" as="geometry">
            <mxPoint x="330" y="340" as="sourcePoint" />
            <mxPoint x="430" y="240" as="targetPoint" />
          </mxGeometry>
        </mxCell>
      </root>
    </mxGraphModel>
  </diagram>
</mxfile>
